<svg width="338" height="338" viewBox="0 0 338 338" fill="none" xmlns="http://www.w3.org/2000/svg">
<rect width="338" height="338" fill="#D07024"/>
<path d="M61.2172 125.646C60.9892 125.646 60.5332 125.456 59.8492 125.076C59.1906 124.696 58.5572 124.088 57.9492 123.252C57.8479 123.125 57.5312 122.745 56.9992 122.112C56.4926 121.479 55.8339 120.693 55.0232 119.756C54.2379 118.793 53.3766 117.755 52.4392 116.64C51.5019 115.525 50.5646 114.411 49.6272 113.296C48.6899 112.181 47.8159 111.155 47.0052 110.218C46.1946 109.255 45.5106 108.457 44.9532 107.824C44.4212 107.165 44.0919 106.76 43.9652 106.608C43.7879 106.38 43.6359 106.228 43.5092 106.152C43.3826 106.051 43.2686 106 43.1672 106C43.0406 106 42.9519 106.101 42.9012 106.304C42.8506 106.481 42.8252 106.646 42.8252 106.798C42.7999 108.039 42.7746 109.471 42.7492 111.092C42.7239 112.713 42.6986 114.385 42.6732 116.108C42.6479 117.831 42.6352 119.477 42.6352 121.048C42.6352 121.732 42.7999 122.365 43.1292 122.948C43.4839 123.531 44.1299 123.911 45.0672 124.088C45.4979 124.164 45.8146 124.253 46.0172 124.354C46.2199 124.455 46.3212 124.595 46.3212 124.772C46.3212 124.924 46.2199 125.025 46.0172 125.076C45.8146 125.152 45.5486 125.19 45.2192 125.19C44.5352 125.19 44.0159 125.165 43.6612 125.114C43.3319 125.089 43.0279 125.063 42.7492 125.038C42.4959 125.013 42.1286 125 41.6472 125C41.1912 125 40.8366 125.013 40.5832 125.038C40.3299 125.063 40.0386 125.089 39.7092 125.114C39.3799 125.165 38.8732 125.19 38.1892 125.19C37.8599 125.19 37.5939 125.152 37.3912 125.076C37.1886 125.025 37.0872 124.924 37.0872 124.772C37.0872 124.595 37.1886 124.455 37.3912 124.354C37.5939 124.253 37.9106 124.151 38.3412 124.05C39.0759 123.847 39.6079 123.48 39.9372 122.948C40.2666 122.391 40.4692 121.719 40.5452 120.934C40.6466 119.971 40.7479 118.705 40.8492 117.134C40.9506 115.538 41.0392 113.765 41.1152 111.814C41.1912 109.838 41.2292 107.811 41.2292 105.734C41.2292 104.391 40.8746 103.429 40.1652 102.846C39.4812 102.263 38.5819 101.795 37.4672 101.44C37.3659 101.389 37.1379 101.288 36.7832 101.136C36.4539 100.959 36.2892 100.756 36.2892 100.528C36.2892 100.3 36.4032 100.161 36.6312 100.11C36.8592 100.034 37.0366 99.996 37.1632 99.996C37.8979 100.021 38.4932 100.047 38.9492 100.072C39.4052 100.072 39.8106 100.085 40.1652 100.11C40.5199 100.135 40.9126 100.161 41.3432 100.186C41.7739 100.186 42.3312 100.186 43.0152 100.186C43.2432 100.186 43.4206 100.249 43.5472 100.376C43.6739 100.503 43.8006 100.655 43.9272 100.832C44.0286 100.984 44.3579 101.415 44.9152 102.124C45.4979 102.808 46.2072 103.682 47.0432 104.746C47.9046 105.785 48.8419 106.925 49.8552 108.166C50.8686 109.382 51.8819 110.611 52.8952 111.852C53.9086 113.068 54.8459 114.208 55.7072 115.272C56.5686 116.311 57.2779 117.172 57.8352 117.856C58.4179 118.54 58.7599 118.945 58.8612 119.072C58.9626 119.173 59.1019 119.325 59.2792 119.528C59.4819 119.731 59.6592 119.832 59.8112 119.832C60.0392 119.832 60.1659 119.566 60.1912 119.034C60.1912 118.679 60.1912 118.008 60.1912 117.02C60.2166 116.007 60.2292 114.791 60.2292 113.372C60.2546 111.928 60.2672 110.37 60.2672 108.698C60.2672 107.026 60.2672 105.316 60.2672 103.568C60.2419 103.061 59.9759 102.605 59.4692 102.2C58.9626 101.795 58.4939 101.554 58.0632 101.478C57.6326 101.402 57.2399 101.301 56.8852 101.174C56.5306 101.047 56.3532 100.895 56.3532 100.718C56.3532 100.566 56.5306 100.465 56.8852 100.414C57.2399 100.338 57.5819 100.3 57.9112 100.3C58.1646 100.3 58.4052 100.3 58.6332 100.3C58.8866 100.3 59.1272 100.3 59.3552 100.3C59.6086 100.3 59.8492 100.3 60.0772 100.3C60.6852 100.3 61.1666 100.3 61.5212 100.3C61.8759 100.275 62.2559 100.249 62.6612 100.224C63.0919 100.199 63.6872 100.186 64.4472 100.186C64.7766 100.186 65.0426 100.224 65.2452 100.3C65.4479 100.351 65.5492 100.452 65.5492 100.604C65.5492 100.959 65.1312 101.212 64.2952 101.364C63.3579 101.541 62.7372 101.769 62.4332 102.048C62.1292 102.327 61.9519 102.783 61.9012 103.416C61.9012 103.543 61.8886 104.037 61.8632 104.898C61.8632 105.759 61.8632 106.849 61.8632 108.166C61.8632 109.483 61.8506 110.902 61.8252 112.422C61.8252 113.942 61.8252 115.462 61.8252 116.982C61.8252 118.477 61.8252 119.819 61.8252 121.01C61.8252 121.618 61.8379 122.175 61.8632 122.682C61.9139 123.163 61.9519 123.581 61.9772 123.936C62.0026 124.265 62.0152 124.519 62.0152 124.696C62.0152 125.101 61.9266 125.355 61.7492 125.456C61.5972 125.583 61.4199 125.646 61.2172 125.646ZM90.8949 125.532C89.2229 125.532 87.6269 125.241 86.1069 124.658C84.5869 124.05 83.2443 123.201 82.0789 122.112C80.9136 120.997 79.9889 119.68 79.3049 118.16C78.6209 116.615 78.2789 114.905 78.2789 113.03C78.2789 111.307 78.5576 109.661 79.1149 108.09C79.6723 106.494 80.4956 105.075 81.5849 103.834C82.6743 102.593 84.0296 101.605 85.6509 100.87C87.2723 100.135 89.1343 99.768 91.2369 99.768C92.9089 99.768 94.5049 100.072 96.0249 100.68C97.5449 101.263 98.8876 102.111 100.053 103.226C101.218 104.315 102.143 105.633 102.827 107.178C103.511 108.698 103.853 110.395 103.853 112.27C103.853 113.967 103.574 115.614 103.017 117.21C102.46 118.806 101.636 120.225 100.547 121.466C99.4576 122.707 98.1023 123.695 96.4809 124.43C94.8596 125.165 92.9976 125.532 90.8949 125.532ZM91.4649 124.012C93.4156 124.012 95.0369 123.607 96.3289 122.796C97.6209 121.96 98.5836 120.807 99.2169 119.338C99.8756 117.843 100.205 116.108 100.205 114.132C100.205 112.384 100.002 110.737 99.5969 109.192C99.1916 107.647 98.5836 106.291 97.7729 105.126C96.9876 103.935 95.9996 103.011 94.8089 102.352C93.6183 101.693 92.2249 101.364 90.6289 101.364C88.7289 101.364 87.1329 101.769 85.8409 102.58C84.5489 103.391 83.5736 104.531 82.9149 106C82.2563 107.444 81.9269 109.154 81.9269 111.13C81.9269 112.903 82.1169 114.563 82.4969 116.108C82.9023 117.653 83.4976 119.021 84.2829 120.212C85.0936 121.403 86.0943 122.34 87.2849 123.024C88.4756 123.683 89.8689 124.012 91.4649 124.012ZM123.581 125.19C123.252 125.19 122.986 125.152 122.783 125.076C122.581 125.025 122.479 124.924 122.479 124.772C122.479 124.595 122.581 124.455 122.783 124.354C122.986 124.253 123.303 124.164 123.733 124.088C124.696 123.911 125.431 123.607 125.937 123.176C126.444 122.72 126.697 122.036 126.697 121.124V106.38C126.697 105.215 126.672 104.328 126.621 103.72C126.571 103.087 126.482 102.643 126.355 102.39C126.254 102.137 126.102 101.997 125.899 101.972C125.545 101.896 125.165 101.858 124.759 101.858C124.379 101.833 123.86 101.82 123.201 101.82H121.415C120.807 101.82 120.199 101.947 119.591 102.2C119.009 102.428 118.578 102.795 118.299 103.302C118.223 103.429 118.097 103.619 117.919 103.872C117.742 104.1 117.552 104.303 117.349 104.48C117.147 104.657 116.944 104.746 116.741 104.746C116.64 104.746 116.564 104.695 116.513 104.594C116.488 104.493 116.475 104.379 116.475 104.252C116.475 103.999 116.539 103.745 116.665 103.492C117.02 102.757 117.273 102.111 117.425 101.554C117.603 100.971 117.742 100.287 117.843 99.502C117.894 99.0713 117.983 98.818 118.109 98.742C118.261 98.666 118.388 98.628 118.489 98.628C118.591 98.628 118.743 98.78 118.945 99.084C119.173 99.388 119.338 99.6413 119.439 99.844C119.591 100.097 119.933 100.287 120.465 100.414C121.023 100.541 121.567 100.604 122.099 100.604H135.475C136.362 100.604 137.084 100.553 137.641 100.452C138.199 100.351 138.68 100.211 139.085 100.034C139.389 99.882 139.63 99.7173 139.807 99.54C140.01 99.3627 140.263 99.274 140.567 99.274C140.643 99.274 140.707 99.3753 140.757 99.578C140.808 99.7553 140.833 99.9453 140.833 100.148C140.833 100.275 140.808 100.452 140.757 100.68C140.732 100.908 140.707 101.085 140.681 101.212C140.605 101.668 140.529 101.997 140.453 102.2C140.403 102.403 140.365 102.58 140.339 102.732C140.314 102.884 140.301 103.125 140.301 103.454V103.91C140.301 104.138 140.251 104.404 140.149 104.708C140.048 104.987 139.896 105.126 139.693 105.126C139.516 105.126 139.377 104.987 139.275 104.708C139.174 104.429 139.073 104.049 138.971 103.568C138.87 103.036 138.566 102.618 138.059 102.314C137.553 101.985 136.691 101.82 135.475 101.82H131.637C131.08 101.82 130.662 101.896 130.383 102.048C130.105 102.2 129.927 102.58 129.851 103.188C129.775 103.796 129.737 104.797 129.737 106.19V121.124C129.737 122.036 130.003 122.72 130.535 123.176C131.067 123.607 131.802 123.911 132.739 124.088C133.17 124.164 133.487 124.253 133.689 124.354C133.892 124.455 133.993 124.595 133.993 124.772C133.993 124.924 133.892 125.025 133.689 125.076C133.487 125.152 133.221 125.19 132.891 125.19C132.207 125.19 131.637 125.165 131.181 125.114C130.751 125.089 130.333 125.063 129.927 125.038C129.522 125.013 129.028 125 128.445 125C127.812 125 127.255 125.013 126.773 125.038C126.317 125.063 125.836 125.089 125.329 125.114C124.848 125.165 124.265 125.19 123.581 125.19ZM149.344 125.19C149.014 125.19 148.748 125.139 148.546 125.038C148.343 124.962 148.242 124.848 148.242 124.696C148.242 124.519 148.343 124.367 148.546 124.24C148.774 124.088 149.09 123.949 149.496 123.822C150.154 123.619 150.762 123.315 151.32 122.91C151.877 122.505 152.358 121.833 152.764 120.896C153.473 119.275 154.119 117.755 154.702 116.336C155.31 114.917 155.88 113.524 156.412 112.156C156.944 110.788 157.488 109.369 158.046 107.9C158.628 106.405 159.236 104.784 159.87 103.036C159.996 102.681 160.11 102.327 160.212 101.972C160.313 101.617 160.376 101.237 160.402 100.832C160.63 100.756 160.858 100.68 161.086 100.604C161.314 100.528 161.542 100.414 161.77 100.262C161.998 100.11 162.15 99.882 162.226 99.578C162.327 99.274 162.416 99.0713 162.492 98.97C162.517 98.9447 162.542 98.932 162.568 98.932C162.618 98.932 162.656 98.9573 162.682 99.008C162.732 99.1093 162.77 99.236 162.796 99.388C162.846 99.54 162.897 99.692 162.948 99.844C163.556 101.769 164.189 103.733 164.848 105.734C165.506 107.735 166.14 109.673 166.748 111.548C167.381 113.397 167.951 115.069 168.458 116.564C168.99 118.033 169.408 119.224 169.712 120.136C170.066 121.149 170.446 121.909 170.852 122.416C171.257 122.923 171.675 123.277 172.106 123.48C172.562 123.683 173.043 123.835 173.55 123.936C173.98 124.012 174.297 124.139 174.5 124.316C174.702 124.468 174.804 124.633 174.804 124.81C174.804 124.962 174.702 125.063 174.5 125.114C174.297 125.165 174.031 125.19 173.702 125.19C173.347 125.19 172.866 125.165 172.258 125.114C171.65 125.089 171.004 125.051 170.32 125C169.636 124.975 169.002 124.962 168.42 124.962C167.938 124.962 167.444 124.962 166.938 124.962C166.431 124.962 165.962 124.975 165.532 125C165.101 125 164.734 125 164.43 125C164.1 125 163.834 124.962 163.632 124.886C163.429 124.81 163.328 124.696 163.328 124.544C163.328 124.367 163.454 124.215 163.708 124.088C163.961 123.961 164.252 123.873 164.582 123.822C165.418 123.695 166.013 123.48 166.368 123.176C166.722 122.872 166.9 122.517 166.9 122.112C166.9 121.732 166.811 121.187 166.634 120.478C166.482 119.743 166.292 118.971 166.064 118.16C165.836 117.324 165.62 116.589 165.418 115.956C165.367 115.753 165.266 115.639 165.114 115.614C164.987 115.563 164.746 115.538 164.392 115.538H157.21C157.108 115.538 156.994 115.589 156.868 115.69C156.766 115.766 156.665 115.943 156.564 116.222C156.488 116.475 156.361 116.881 156.184 117.438C156.006 117.97 155.829 118.54 155.652 119.148C155.474 119.756 155.322 120.301 155.196 120.782C155.069 121.263 155.006 121.567 155.006 121.694C155.006 122.251 155.221 122.72 155.652 123.1C156.082 123.455 156.602 123.708 157.21 123.86C158.046 124.088 158.464 124.341 158.464 124.62C158.464 124.772 158.362 124.886 158.16 124.962C157.957 125.013 157.691 125.038 157.362 125.038C157.032 125.038 156.551 125.025 155.918 125C155.284 124.975 154.613 124.962 153.904 124.962C153.068 124.962 152.257 125 151.472 125.076C150.686 125.152 149.977 125.19 149.344 125.19ZM158.236 114.284H164.126C164.48 114.284 164.658 114.221 164.658 114.094C164.658 114.043 164.645 113.993 164.62 113.942C164.62 113.866 164.607 113.79 164.582 113.714L161.618 104.442C161.466 103.986 161.352 103.758 161.276 103.758C161.225 103.758 161.124 103.973 160.972 104.404L157.514 113.714C157.463 113.866 157.438 113.967 157.438 114.018C157.438 114.145 157.501 114.221 157.628 114.246C157.78 114.271 157.982 114.284 158.236 114.284ZM209.474 125.798C208.765 125.798 208.094 125.735 207.46 125.608C206.827 125.507 206.244 125.304 205.712 125C205.18 124.696 204.686 124.278 204.23 123.746C203.622 122.986 203.04 122.264 202.482 121.58C201.925 120.871 201.33 120.06 200.696 119.148C200.088 118.236 199.341 117.071 198.454 115.652C198.074 115.019 197.53 114.525 196.82 114.17C196.263 113.891 195.706 113.701 195.148 113.6C194.616 113.473 194.173 113.397 193.818 113.372C193.616 113.347 193.464 113.41 193.362 113.562C193.286 113.714 193.248 113.904 193.248 114.132V120.82C193.248 121.631 193.438 122.34 193.818 122.948C194.198 123.531 194.857 123.911 195.794 124.088C196.225 124.164 196.542 124.253 196.744 124.354C196.947 124.455 197.048 124.595 197.048 124.772C197.048 124.924 196.947 125.025 196.744 125.076C196.542 125.152 196.276 125.19 195.946 125.19C195.262 125.19 194.73 125.165 194.35 125.114C193.996 125.063 193.666 125.025 193.362 125C193.084 124.949 192.704 124.924 192.222 124.924C191.589 124.924 191.019 124.949 190.512 125C190.031 125.025 189.537 125.063 189.03 125.114C188.549 125.165 187.966 125.19 187.282 125.19C186.953 125.19 186.687 125.152 186.484 125.076C186.282 125.025 186.18 124.924 186.18 124.772C186.18 124.468 186.598 124.24 187.434 124.088C188.397 123.911 189.094 123.619 189.524 123.214C189.98 122.809 190.208 122.137 190.208 121.2V105.012C190.208 104.049 190.158 103.327 190.056 102.846C189.98 102.339 189.778 101.985 189.448 101.782C189.144 101.579 188.625 101.44 187.89 101.364C187.46 101.313 187.143 101.225 186.94 101.098C186.738 100.946 186.636 100.781 186.636 100.604C186.636 100.452 186.738 100.351 186.94 100.3C187.143 100.224 187.409 100.186 187.738 100.186C188.422 100.186 188.929 100.186 189.258 100.186C189.613 100.186 189.942 100.199 190.246 100.224C190.55 100.224 190.956 100.224 191.462 100.224C191.944 100.224 192.374 100.211 192.754 100.186C193.134 100.135 193.552 100.097 194.008 100.072C194.49 100.047 195.098 100.034 195.832 100.034C198.619 100.034 200.734 100.553 202.178 101.592C203.648 102.631 204.382 104.189 204.382 106.266C204.382 107.406 204.154 108.394 203.698 109.23C203.242 110.041 202.672 110.725 201.988 111.282C201.304 111.839 200.608 112.295 199.898 112.65C199.797 112.675 199.746 112.739 199.746 112.84C199.772 112.916 199.822 113.017 199.898 113.144C200.684 114.335 201.431 115.462 202.14 116.526C202.875 117.59 203.673 118.629 204.534 119.642C205.396 120.655 206.422 121.707 207.612 122.796C208.271 123.379 208.942 123.733 209.626 123.86C210.31 123.987 211.096 124.05 211.982 124.05C212.362 124.05 212.552 124.189 212.552 124.468C212.552 124.848 212.362 125.127 211.982 125.304C211.602 125.507 211.172 125.633 210.69 125.684C210.209 125.76 209.804 125.798 209.474 125.798ZM195.262 112.498C196.428 112.498 197.428 112.232 198.264 111.7C199.126 111.168 199.784 110.471 200.24 109.61C200.722 108.749 200.962 107.837 200.962 106.874C200.962 105.835 200.823 104.885 200.544 104.024C200.291 103.163 199.759 102.479 198.948 101.972C198.163 101.44 196.972 101.174 195.376 101.174C194.566 101.174 194.034 101.44 193.78 101.972C193.527 102.479 193.375 103.391 193.324 104.708C193.299 105.341 193.274 106.203 193.248 107.292C193.248 108.356 193.248 109.648 193.248 111.168C193.248 111.801 193.426 112.181 193.78 112.308C194.135 112.435 194.629 112.498 195.262 112.498ZM224.822 125.19C224.493 125.19 224.227 125.152 224.024 125.076C223.821 125.025 223.72 124.924 223.72 124.772C223.72 124.468 224.138 124.24 224.974 124.088C225.937 123.911 226.671 123.619 227.178 123.214C227.685 122.809 227.938 122.163 227.938 121.276V104.1C227.938 103.213 227.748 102.58 227.368 102.2C227.013 101.82 226.355 101.541 225.392 101.364C224.556 101.212 224.138 100.959 224.138 100.604C224.138 100.452 224.239 100.351 224.442 100.3C224.645 100.224 224.911 100.186 225.24 100.186C225.924 100.186 226.481 100.199 226.912 100.224C227.368 100.249 227.799 100.275 228.204 100.3C228.609 100.3 229.103 100.3 229.686 100.3C230.243 100.3 230.699 100.3 231.054 100.3C231.409 100.275 231.789 100.249 232.194 100.224C232.599 100.199 233.144 100.186 233.828 100.186C234.157 100.186 234.423 100.224 234.626 100.3C234.829 100.351 234.93 100.452 234.93 100.604C234.93 100.781 234.829 100.933 234.626 101.06C234.423 101.187 234.107 101.288 233.676 101.364C232.739 101.541 232.055 101.82 231.624 102.2C231.193 102.58 230.978 103.213 230.978 104.1V121.276C230.978 122.163 231.244 122.809 231.776 123.214C232.308 123.619 233.043 123.911 233.98 124.088C234.411 124.164 234.727 124.253 234.93 124.354C235.133 124.455 235.234 124.595 235.234 124.772C235.234 124.924 235.133 125.025 234.93 125.076C234.727 125.152 234.461 125.19 234.132 125.19C233.448 125.19 232.878 125.165 232.422 125.114C231.991 125.089 231.573 125.063 231.168 125.038C230.763 125.013 230.269 125 229.686 125C229.053 125 228.495 125.013 228.014 125.038C227.558 125.063 227.077 125.089 226.57 125.114C226.089 125.165 225.506 125.19 224.822 125.19ZM228.204 98.97C228.052 98.97 227.976 98.894 227.976 98.742C227.976 98.5647 228.039 98.3747 228.166 98.172C228.622 97.412 229.091 96.652 229.572 95.892C230.079 95.132 230.585 94.3847 231.092 93.65C231.32 93.3207 231.662 93.156 232.118 93.156C232.295 93.156 232.561 93.194 232.916 93.27C233.271 93.346 233.587 93.4473 233.866 93.574C234.17 93.7007 234.322 93.8527 234.322 94.03C234.322 94.2073 234.157 94.448 233.828 94.752C233.093 95.4107 232.27 96.082 231.358 96.766C230.446 97.4247 229.623 98.0453 228.888 98.628C228.711 98.7547 228.559 98.8433 228.432 98.894C228.331 98.9447 228.255 98.97 228.204 98.97ZM247.578 125.19C247.249 125.19 246.983 125.139 246.78 125.038C246.577 124.962 246.476 124.848 246.476 124.696C246.476 124.519 246.577 124.367 246.78 124.24C247.008 124.088 247.325 123.949 247.73 123.822C248.389 123.619 248.997 123.315 249.554 122.91C250.111 122.505 250.593 121.833 250.998 120.896C251.707 119.275 252.353 117.755 252.936 116.336C253.544 114.917 254.114 113.524 254.646 112.156C255.178 110.788 255.723 109.369 256.28 107.9C256.863 106.405 257.471 104.784 258.104 103.036C258.231 102.681 258.345 102.327 258.446 101.972C258.547 101.617 258.611 101.237 258.636 100.832C258.864 100.756 259.092 100.68 259.32 100.604C259.548 100.528 259.776 100.414 260.004 100.262C260.232 100.11 260.384 99.882 260.46 99.578C260.561 99.274 260.65 99.0713 260.726 98.97C260.751 98.9447 260.777 98.932 260.802 98.932C260.853 98.932 260.891 98.9573 260.916 99.008C260.967 99.1093 261.005 99.236 261.03 99.388C261.081 99.54 261.131 99.692 261.182 99.844C261.79 101.769 262.423 103.733 263.082 105.734C263.741 107.735 264.374 109.673 264.982 111.548C265.615 113.397 266.185 115.069 266.692 116.564C267.224 118.033 267.642 119.224 267.946 120.136C268.301 121.149 268.681 121.909 269.086 122.416C269.491 122.923 269.909 123.277 270.34 123.48C270.796 123.683 271.277 123.835 271.784 123.936C272.215 124.012 272.531 124.139 272.734 124.316C272.937 124.468 273.038 124.633 273.038 124.81C273.038 124.962 272.937 125.063 272.734 125.114C272.531 125.165 272.265 125.19 271.936 125.19C271.581 125.19 271.1 125.165 270.492 125.114C269.884 125.089 269.238 125.051 268.554 125C267.87 124.975 267.237 124.962 266.654 124.962C266.173 124.962 265.679 124.962 265.172 124.962C264.665 124.962 264.197 124.975 263.766 125C263.335 125 262.968 125 262.664 125C262.335 125 262.069 124.962 261.866 124.886C261.663 124.81 261.562 124.696 261.562 124.544C261.562 124.367 261.689 124.215 261.942 124.088C262.195 123.961 262.487 123.873 262.816 123.822C263.652 123.695 264.247 123.48 264.602 123.176C264.957 122.872 265.134 122.517 265.134 122.112C265.134 121.732 265.045 121.187 264.868 120.478C264.716 119.743 264.526 118.971 264.298 118.16C264.07 117.324 263.855 116.589 263.652 115.956C263.601 115.753 263.5 115.639 263.348 115.614C263.221 115.563 262.981 115.538 262.626 115.538H255.444C255.343 115.538 255.229 115.589 255.102 115.69C255.001 115.766 254.899 115.943 254.798 116.222C254.722 116.475 254.595 116.881 254.418 117.438C254.241 117.97 254.063 118.54 253.886 119.148C253.709 119.756 253.557 120.301 253.43 120.782C253.303 121.263 253.24 121.567 253.24 121.694C253.24 122.251 253.455 122.72 253.886 123.1C254.317 123.455 254.836 123.708 255.444 123.86C256.28 124.088 256.698 124.341 256.698 124.62C256.698 124.772 256.597 124.886 256.394 124.962C256.191 125.013 255.925 125.038 255.596 125.038C255.267 125.038 254.785 125.025 254.152 125C253.519 124.975 252.847 124.962 252.138 124.962C251.302 124.962 250.491 125 249.706 125.076C248.921 125.152 248.211 125.19 247.578 125.19ZM256.47 114.284H262.36C262.715 114.284 262.892 114.221 262.892 114.094C262.892 114.043 262.879 113.993 262.854 113.942C262.854 113.866 262.841 113.79 262.816 113.714L259.852 104.442C259.7 103.986 259.586 103.758 259.51 103.758C259.459 103.758 259.358 103.973 259.206 104.404L255.748 113.714C255.697 113.866 255.672 113.967 255.672 114.018C255.672 114.145 255.735 114.221 255.862 114.246C256.014 114.271 256.217 114.284 256.47 114.284ZM291.255 125.608C290.191 125.608 289.203 125.443 288.291 125.114C287.404 124.81 286.606 124.367 285.897 123.784C285.795 123.683 285.694 123.569 285.593 123.442C285.517 123.315 285.453 123.176 285.403 123.024C285.276 122.517 285.187 121.859 285.137 121.048C285.111 120.237 285.073 119.566 285.023 119.034C285.023 118.857 285.099 118.73 285.251 118.654C285.403 118.553 285.58 118.502 285.783 118.502C285.909 118.502 286.036 118.54 286.163 118.616C286.289 118.667 286.365 118.768 286.391 118.92C286.897 120.871 287.645 122.264 288.633 123.1C289.646 123.936 290.697 124.354 291.787 124.354C292.673 124.354 293.459 124.164 294.143 123.784C294.827 123.404 295.359 122.872 295.739 122.188C296.144 121.479 296.347 120.655 296.347 119.718C296.347 118.679 296.169 117.843 295.815 117.21C295.485 116.551 295.004 115.981 294.371 115.5C293.737 115.019 292.965 114.499 292.053 113.942C291.065 113.309 290.089 112.675 289.127 112.042C288.164 111.383 287.366 110.636 286.733 109.8C286.099 108.939 285.783 107.9 285.783 106.684C285.783 105.392 286.074 104.227 286.657 103.188C287.239 102.149 288.113 101.326 289.279 100.718C290.469 100.085 291.951 99.768 293.725 99.768C294.637 99.768 295.422 99.8693 296.081 100.072C296.765 100.249 297.309 100.427 297.715 100.604C297.917 100.68 298.082 100.807 298.209 100.984C298.361 101.161 298.462 101.351 298.513 101.554C298.665 102.086 298.829 102.694 299.007 103.378C299.184 104.062 299.273 104.708 299.273 105.316C299.273 105.595 299.083 105.734 298.703 105.734C298.475 105.734 298.247 105.683 298.019 105.582C297.816 105.481 297.689 105.354 297.639 105.202C297.107 103.859 296.486 102.833 295.777 102.124C295.067 101.415 294.168 101.06 293.079 101.06C292.319 101.06 291.609 101.199 290.951 101.478C290.292 101.757 289.747 102.213 289.317 102.846C288.911 103.479 288.709 104.328 288.709 105.392C288.709 106.152 288.949 106.849 289.431 107.482C289.937 108.09 290.596 108.673 291.407 109.23C292.217 109.787 293.091 110.357 294.029 110.94C294.915 111.472 295.777 112.055 296.613 112.688C297.474 113.321 298.171 114.081 298.703 114.968C299.26 115.829 299.539 116.893 299.539 118.16C299.539 119.655 299.197 120.972 298.513 122.112C297.829 123.227 296.866 124.088 295.625 124.696C294.383 125.304 292.927 125.608 291.255 125.608ZM36.8496 155.19C36.5203 155.19 36.2543 155.139 36.0516 155.038C35.8489 154.962 35.7476 154.848 35.7476 154.696C35.7476 154.519 35.8489 154.367 36.0516 154.24C36.2796 154.088 36.5963 153.949 37.0016 153.822C37.6603 153.619 38.2683 153.315 38.8256 152.91C39.3829 152.505 39.8643 151.833 40.2696 150.896C40.9789 149.275 41.6249 147.755 42.2076 146.336C42.8156 144.917 43.3856 143.524 43.9176 142.156C44.4496 140.788 44.9943 139.369 45.5516 137.9C46.1343 136.405 46.7423 134.784 47.3756 133.036C47.5023 132.681 47.6163 132.327 47.7176 131.972C47.8189 131.617 47.8823 131.237 47.9076 130.832C48.1356 130.756 48.3636 130.68 48.5916 130.604C48.8196 130.528 49.0476 130.414 49.2756 130.262C49.5036 130.11 49.6556 129.882 49.7316 129.578C49.8329 129.274 49.9216 129.071 49.9976 128.97C50.0229 128.945 50.0483 128.932 50.0736 128.932C50.1243 128.932 50.1623 128.957 50.1876 129.008C50.2383 129.109 50.2763 129.236 50.3016 129.388C50.3523 129.54 50.4029 129.692 50.4536 129.844C51.0616 131.769 51.6949 133.733 52.3536 135.734C53.0123 137.735 53.6456 139.673 54.2536 141.548C54.8869 143.397 55.4569 145.069 55.9636 146.564C56.4956 148.033 56.9136 149.224 57.2176 150.136C57.5723 151.149 57.9523 151.909 58.3576 152.416C58.7629 152.923 59.1809 153.277 59.6116 153.48C60.0676 153.683 60.5489 153.835 61.0556 153.936C61.4863 154.012 61.8029 154.139 62.0056 154.316C62.2083 154.468 62.3096 154.633 62.3096 154.81C62.3096 154.962 62.2083 155.063 62.0056 155.114C61.8029 155.165 61.5369 155.19 61.2076 155.19C60.8529 155.19 60.3716 155.165 59.7636 155.114C59.1556 155.089 58.5096 155.051 57.8256 155C57.1416 154.975 56.5083 154.962 55.9256 154.962C55.4443 154.962 54.9503 154.962 54.4436 154.962C53.9369 154.962 53.4683 154.975 53.0376 155C52.6069 155 52.2396 155 51.9356 155C51.6063 155 51.3403 154.962 51.1376 154.886C50.9349 154.81 50.8336 154.696 50.8336 154.544C50.8336 154.367 50.9603 154.215 51.2136 154.088C51.4669 153.961 51.7583 153.873 52.0876 153.822C52.9236 153.695 53.5189 153.48 53.8736 153.176C54.2283 152.872 54.4056 152.517 54.4056 152.112C54.4056 151.732 54.3169 151.187 54.1396 150.478C53.9876 149.743 53.7976 148.971 53.5696 148.16C53.3416 147.324 53.1263 146.589 52.9236 145.956C52.8729 145.753 52.7716 145.639 52.6196 145.614C52.4929 145.563 52.2523 145.538 51.8976 145.538H44.7156C44.6143 145.538 44.5003 145.589 44.3736 145.69C44.2723 145.766 44.1709 145.943 44.0696 146.222C43.9936 146.475 43.8669 146.881 43.6896 147.438C43.5123 147.97 43.3349 148.54 43.1576 149.148C42.9803 149.756 42.8283 150.301 42.7016 150.782C42.5749 151.263 42.5116 151.567 42.5116 151.694C42.5116 152.251 42.7269 152.72 43.1576 153.1C43.5883 153.455 44.1076 153.708 44.7156 153.86C45.5516 154.088 45.9696 154.341 45.9696 154.62C45.9696 154.772 45.8683 154.886 45.6656 154.962C45.4629 155.013 45.1969 155.038 44.8676 155.038C44.5383 155.038 44.0569 155.025 43.4236 155C42.7903 154.975 42.1189 154.962 41.4096 154.962C40.5736 154.962 39.7629 155 38.9776 155.076C38.1923 155.152 37.4829 155.19 36.8496 155.19ZM45.7416 144.284H51.6316C51.9863 144.284 52.1636 144.221 52.1636 144.094C52.1636 144.043 52.1509 143.993 52.1256 143.942C52.1256 143.866 52.1129 143.79 52.0876 143.714L49.1236 134.442C48.9716 133.986 48.8576 133.758 48.7816 133.758C48.7309 133.758 48.6296 133.973 48.4776 134.404L45.0196 143.714C44.9689 143.866 44.9436 143.967 44.9436 144.018C44.9436 144.145 45.0069 144.221 45.1336 144.246C45.2856 144.271 45.4883 144.284 45.7416 144.284ZM76.7261 155.608C75.6621 155.608 74.6741 155.443 73.7621 155.114C72.8755 154.81 72.0775 154.367 71.3681 153.784C71.2668 153.683 71.1655 153.569 71.0641 153.442C70.9881 153.315 70.9248 153.176 70.8741 153.024C70.7475 152.517 70.6588 151.859 70.6081 151.048C70.5828 150.237 70.5448 149.566 70.4941 149.034C70.4941 148.857 70.5701 148.73 70.7221 148.654C70.8741 148.553 71.0515 148.502 71.2541 148.502C71.3808 148.502 71.5075 148.54 71.6341 148.616C71.7608 148.667 71.8368 148.768 71.8621 148.92C72.3688 150.871 73.1161 152.264 74.1041 153.1C75.1175 153.936 76.1688 154.354 77.2581 154.354C78.1448 154.354 78.9301 154.164 79.6141 153.784C80.2981 153.404 80.8301 152.872 81.2101 152.188C81.6155 151.479 81.8181 150.655 81.8181 149.718C81.8181 148.679 81.6408 147.843 81.2861 147.21C80.9568 146.551 80.4755 145.981 79.8421 145.5C79.2088 145.019 78.4361 144.499 77.5241 143.942C76.5361 143.309 75.5608 142.675 74.5981 142.042C73.6355 141.383 72.8375 140.636 72.2041 139.8C71.5708 138.939 71.2541 137.9 71.2541 136.684C71.2541 135.392 71.5455 134.227 72.1281 133.188C72.7108 132.149 73.5848 131.326 74.7501 130.718C75.9408 130.085 77.4228 129.768 79.1961 129.768C80.1081 129.768 80.8935 129.869 81.5521 130.072C82.2361 130.249 82.7808 130.427 83.1861 130.604C83.3888 130.68 83.5535 130.807 83.6801 130.984C83.8321 131.161 83.9335 131.351 83.9841 131.554C84.1361 132.086 84.3008 132.694 84.4781 133.378C84.6555 134.062 84.7441 134.708 84.7441 135.316C84.7441 135.595 84.5541 135.734 84.1741 135.734C83.9461 135.734 83.7181 135.683 83.4901 135.582C83.2875 135.481 83.1608 135.354 83.1101 135.202C82.5781 133.859 81.9575 132.833 81.2481 132.124C80.5388 131.415 79.6395 131.06 78.5501 131.06C77.7901 131.06 77.0808 131.199 76.4221 131.478C75.7635 131.757 75.2188 132.213 74.7881 132.846C74.3828 133.479 74.1801 134.328 74.1801 135.392C74.1801 136.152 74.4208 136.849 74.9021 137.482C75.4088 138.09 76.0675 138.673 76.8781 139.23C77.6888 139.787 78.5628 140.357 79.5001 140.94C80.3868 141.472 81.2481 142.055 82.0841 142.688C82.9455 143.321 83.6421 144.081 84.1741 144.968C84.7315 145.829 85.0101 146.893 85.0101 148.16C85.0101 149.655 84.6681 150.972 83.9841 152.112C83.3001 153.227 82.3375 154.088 81.0961 154.696C79.8548 155.304 78.3981 155.608 76.7261 155.608ZM107.804 155.532C106.132 155.532 104.536 155.241 103.016 154.658C101.496 154.05 100.154 153.201 98.9882 152.112C97.8229 150.997 96.8982 149.68 96.2142 148.16C95.5302 146.615 95.1882 144.905 95.1882 143.03C95.1882 141.307 95.4669 139.661 96.0242 138.09C96.5815 136.494 97.4049 135.075 98.4942 133.834C99.5835 132.593 100.939 131.605 102.56 130.87C104.182 130.135 106.044 129.768 108.146 129.768C109.818 129.768 111.414 130.072 112.934 130.68C114.454 131.263 115.797 132.111 116.962 133.226C118.128 134.315 119.052 135.633 119.736 137.178C120.42 138.698 120.762 140.395 120.762 142.27C120.762 143.967 120.484 145.614 119.926 147.21C119.369 148.806 118.546 150.225 117.456 151.466C116.367 152.707 115.012 153.695 113.39 154.43C111.769 155.165 109.907 155.532 107.804 155.532ZM108.374 154.012C110.325 154.012 111.946 153.607 113.238 152.796C114.53 151.96 115.493 150.807 116.126 149.338C116.785 147.843 117.114 146.108 117.114 144.132C117.114 142.384 116.912 140.737 116.506 139.192C116.101 137.647 115.493 136.291 114.682 135.126C113.897 133.935 112.909 133.011 111.718 132.352C110.528 131.693 109.134 131.364 107.538 131.364C105.638 131.364 104.042 131.769 102.75 132.58C101.458 133.391 100.483 134.531 99.8242 136C99.1655 137.444 98.8362 139.154 98.8362 141.13C98.8362 142.903 99.0262 144.563 99.4062 146.108C99.8115 147.653 100.407 149.021 101.192 150.212C102.003 151.403 103.004 152.34 104.194 153.024C105.385 153.683 106.778 154.012 108.374 154.012ZM144.767 155.57C142.993 155.57 141.283 155.266 139.637 154.658C137.99 154.05 136.521 153.189 135.229 152.074C133.937 150.934 132.911 149.579 132.151 148.008C131.416 146.412 131.049 144.651 131.049 142.726C131.049 140.877 131.441 139.167 132.227 137.596C133.012 136.025 134.089 134.657 135.457 133.492C136.825 132.327 138.383 131.427 140.131 130.794C141.904 130.135 143.766 129.806 145.717 129.806C146.705 129.806 147.541 129.844 148.225 129.92C148.909 129.996 149.567 130.11 150.201 130.262C150.859 130.389 151.619 130.566 152.481 130.794C152.861 130.895 153.127 131.047 153.279 131.25C153.456 131.453 153.557 131.731 153.583 132.086C153.633 132.669 153.697 133.302 153.773 133.986C153.849 134.645 153.899 135.468 153.925 136.456C153.95 136.633 153.861 136.785 153.659 136.912C153.481 137.013 153.279 137.039 153.051 136.988C152.848 136.937 152.709 136.773 152.633 136.494C152.379 135.531 152.088 134.708 151.759 134.024C151.429 133.315 150.935 132.732 150.277 132.276C149.643 131.845 148.871 131.529 147.959 131.326C147.072 131.098 146.109 130.984 145.071 130.984C143.601 130.984 142.233 131.288 140.967 131.896C139.725 132.479 138.649 133.289 137.737 134.328C136.85 135.341 136.153 136.494 135.647 137.786C135.14 139.078 134.887 140.421 134.887 141.814C134.887 143.359 135.127 144.879 135.609 146.374C136.115 147.869 136.825 149.224 137.737 150.44C138.674 151.631 139.776 152.593 141.043 153.328C142.335 154.037 143.766 154.392 145.337 154.392C147.161 154.392 148.668 153.974 149.859 153.138C151.049 152.302 152.063 151.137 152.899 149.642C153.076 149.313 153.329 149.148 153.659 149.148C154.013 149.148 154.191 149.351 154.191 149.756C154.191 149.959 154.14 150.288 154.039 150.744C153.937 151.175 153.798 151.643 153.621 152.15C153.469 152.631 153.317 153.062 153.165 153.442C152.987 153.797 152.835 154.025 152.709 154.126C152.607 154.227 152.354 154.341 151.949 154.468C151.011 154.848 149.884 155.127 148.567 155.304C147.275 155.481 146.008 155.57 144.767 155.57ZM164.943 155.19C164.614 155.19 164.348 155.152 164.145 155.076C163.942 155.025 163.841 154.924 163.841 154.772C163.841 154.468 164.259 154.24 165.095 154.088C166.058 153.911 166.792 153.619 167.299 153.214C167.806 152.809 168.059 152.163 168.059 151.276V134.1C168.059 133.213 167.869 132.58 167.489 132.2C167.134 131.82 166.476 131.541 165.513 131.364C164.677 131.212 164.259 130.959 164.259 130.604C164.259 130.452 164.36 130.351 164.563 130.3C164.766 130.224 165.032 130.186 165.361 130.186C166.045 130.186 166.602 130.199 167.033 130.224C167.489 130.249 167.92 130.275 168.325 130.3C168.73 130.3 169.224 130.3 169.807 130.3C170.364 130.3 170.82 130.3 171.175 130.3C171.53 130.275 171.91 130.249 172.315 130.224C172.72 130.199 173.265 130.186 173.949 130.186C174.278 130.186 174.544 130.224 174.747 130.3C174.95 130.351 175.051 130.452 175.051 130.604C175.051 130.781 174.95 130.933 174.747 131.06C174.544 131.187 174.228 131.288 173.797 131.364C172.86 131.541 172.176 131.82 171.745 132.2C171.314 132.58 171.099 133.213 171.099 134.1V151.276C171.099 152.163 171.365 152.809 171.897 153.214C172.429 153.619 173.164 153.911 174.101 154.088C174.532 154.164 174.848 154.253 175.051 154.354C175.254 154.455 175.355 154.595 175.355 154.772C175.355 154.924 175.254 155.025 175.051 155.076C174.848 155.152 174.582 155.19 174.253 155.19C173.569 155.19 172.999 155.165 172.543 155.114C172.112 155.089 171.694 155.063 171.289 155.038C170.884 155.013 170.39 155 169.807 155C169.174 155 168.616 155.013 168.135 155.038C167.679 155.063 167.198 155.089 166.691 155.114C166.21 155.165 165.627 155.19 164.943 155.19ZM183.899 155.19C183.57 155.19 183.304 155.139 183.101 155.038C182.899 154.962 182.797 154.848 182.797 154.696C182.797 154.519 182.899 154.367 183.101 154.24C183.329 154.088 183.646 153.949 184.051 153.822C184.71 153.619 185.318 153.315 185.875 152.91C186.433 152.505 186.914 151.833 187.319 150.896C188.029 149.275 188.675 147.755 189.257 146.336C189.865 144.917 190.435 143.524 190.967 142.156C191.499 140.788 192.044 139.369 192.601 137.9C193.184 136.405 193.792 134.784 194.425 133.036C194.552 132.681 194.666 132.327 194.767 131.972C194.869 131.617 194.932 131.237 194.957 130.832C195.185 130.756 195.413 130.68 195.641 130.604C195.869 130.528 196.097 130.414 196.325 130.262C196.553 130.11 196.705 129.882 196.781 129.578C196.883 129.274 196.971 129.071 197.047 128.97C197.073 128.945 197.098 128.932 197.123 128.932C197.174 128.932 197.212 128.957 197.237 129.008C197.288 129.109 197.326 129.236 197.351 129.388C197.402 129.54 197.453 129.692 197.503 129.844C198.111 131.769 198.745 133.733 199.403 135.734C200.062 137.735 200.695 139.673 201.303 141.548C201.937 143.397 202.507 145.069 203.013 146.564C203.545 148.033 203.963 149.224 204.267 150.136C204.622 151.149 205.002 151.909 205.407 152.416C205.813 152.923 206.231 153.277 206.661 153.48C207.117 153.683 207.599 153.835 208.105 153.936C208.536 154.012 208.853 154.139 209.055 154.316C209.258 154.468 209.359 154.633 209.359 154.81C209.359 154.962 209.258 155.063 209.055 155.114C208.853 155.165 208.587 155.19 208.257 155.19C207.903 155.19 207.421 155.165 206.813 155.114C206.205 155.089 205.559 155.051 204.875 155C204.191 154.975 203.558 154.962 202.975 154.962C202.494 154.962 202 154.962 201.493 154.962C200.987 154.962 200.518 154.975 200.087 155C199.657 155 199.289 155 198.985 155C198.656 155 198.39 154.962 198.187 154.886C197.985 154.81 197.883 154.696 197.883 154.544C197.883 154.367 198.01 154.215 198.263 154.088C198.517 153.961 198.808 153.873 199.137 153.822C199.973 153.695 200.569 153.48 200.923 153.176C201.278 152.872 201.455 152.517 201.455 152.112C201.455 151.732 201.367 151.187 201.189 150.478C201.037 149.743 200.847 148.971 200.619 148.16C200.391 147.324 200.176 146.589 199.973 145.956C199.923 145.753 199.821 145.639 199.669 145.614C199.543 145.563 199.302 145.538 198.947 145.538H191.765C191.664 145.538 191.55 145.589 191.423 145.69C191.322 145.766 191.221 145.943 191.119 146.222C191.043 146.475 190.917 146.881 190.739 147.438C190.562 147.97 190.385 148.54 190.207 149.148C190.03 149.756 189.878 150.301 189.751 150.782C189.625 151.263 189.561 151.567 189.561 151.694C189.561 152.251 189.777 152.72 190.207 153.1C190.638 153.455 191.157 153.708 191.765 153.86C192.601 154.088 193.019 154.341 193.019 154.62C193.019 154.772 192.918 154.886 192.715 154.962C192.513 155.013 192.247 155.038 191.917 155.038C191.588 155.038 191.107 155.025 190.473 155C189.84 154.975 189.169 154.962 188.459 154.962C187.623 154.962 186.813 155 186.027 155.076C185.242 155.152 184.533 155.19 183.899 155.19ZM192.791 144.284H198.681C199.036 144.284 199.213 144.221 199.213 144.094C199.213 144.043 199.201 143.993 199.175 143.942C199.175 143.866 199.163 143.79 199.137 143.714L196.173 134.442C196.021 133.986 195.907 133.758 195.831 133.758C195.781 133.758 195.679 133.973 195.527 134.404L192.069 143.714C192.019 143.866 191.993 143.967 191.993 144.018C191.993 144.145 192.057 144.221 192.183 144.246C192.335 144.271 192.538 144.284 192.791 144.284ZM230.122 155.266C229.868 155.266 229.298 155.241 228.412 155.19C227.55 155.139 226.55 155.089 225.41 155.038C224.295 155.013 223.231 155 222.218 155C221.711 155 221.28 155.013 220.926 155.038C220.596 155.063 220.229 155.089 219.824 155.114C219.444 155.165 218.912 155.19 218.228 155.19C217.898 155.19 217.632 155.152 217.43 155.076C217.227 155 217.126 154.873 217.126 154.696C217.126 154.493 217.227 154.367 217.43 154.316C217.632 154.24 217.949 154.164 218.38 154.088C219.342 153.911 220.001 153.619 220.356 153.214C220.736 152.809 220.926 152.15 220.926 151.238V134.138C220.926 133.226 220.736 132.58 220.356 132.2C220.001 131.82 219.342 131.541 218.38 131.364C217.949 131.288 217.632 131.212 217.43 131.136C217.227 131.035 217.126 130.883 217.126 130.68C217.126 130.503 217.227 130.376 217.43 130.3C217.632 130.224 217.898 130.186 218.228 130.186C218.886 130.186 219.406 130.199 219.786 130.224C220.191 130.224 220.584 130.237 220.964 130.262C221.344 130.262 221.838 130.262 222.446 130.262C222.851 130.262 223.358 130.249 223.966 130.224C224.599 130.199 225.245 130.161 225.904 130.11C226.588 130.059 227.196 130.021 227.728 129.996C228.285 129.971 228.69 129.958 228.944 129.958C231.528 129.958 233.732 130.275 235.556 130.908C237.38 131.516 238.862 132.377 240.002 133.492C241.142 134.581 241.978 135.861 242.51 137.33C243.067 138.774 243.346 140.332 243.346 142.004C243.346 143.828 243.004 145.538 242.32 147.134C241.636 148.73 240.686 150.149 239.47 151.39C238.254 152.606 236.848 153.556 235.252 154.24C233.656 154.924 231.946 155.266 230.122 155.266ZM229.666 153.936C231.642 153.936 233.39 153.455 234.91 152.492C236.43 151.529 237.608 150.199 238.444 148.502C239.305 146.805 239.736 144.854 239.736 142.65C239.736 140.826 239.432 139.205 238.824 137.786C238.216 136.342 237.405 135.139 236.392 134.176C235.378 133.188 234.238 132.441 232.972 131.934C231.705 131.402 230.426 131.136 229.134 131.136C228.044 131.136 227.107 131.174 226.322 131.25C225.562 131.301 224.979 131.491 224.574 131.82C224.168 132.149 223.966 132.694 223.966 133.454V150.402C223.966 151.415 224.244 152.175 224.802 152.682C225.359 153.189 226.068 153.531 226.93 153.708C227.816 153.86 228.728 153.936 229.666 153.936ZM251.388 155.19C251.058 155.19 250.792 155.139 250.59 155.038C250.387 154.962 250.286 154.848 250.286 154.696C250.286 154.519 250.387 154.367 250.59 154.24C250.818 154.088 251.134 153.949 251.54 153.822C252.198 153.619 252.806 153.315 253.364 152.91C253.921 152.505 254.402 151.833 254.808 150.896C255.517 149.275 256.163 147.755 256.746 146.336C257.354 144.917 257.924 143.524 258.456 142.156C258.988 140.788 259.532 139.369 260.09 137.9C260.672 136.405 261.28 134.784 261.914 133.036C262.04 132.681 262.154 132.327 262.256 131.972C262.357 131.617 262.42 131.237 262.446 130.832C262.674 130.756 262.902 130.68 263.13 130.604C263.358 130.528 263.586 130.414 263.814 130.262C264.042 130.11 264.194 129.882 264.27 129.578C264.371 129.274 264.46 129.071 264.536 128.97C264.561 128.945 264.586 128.932 264.612 128.932C264.662 128.932 264.7 128.957 264.726 129.008C264.776 129.109 264.814 129.236 264.84 129.388C264.89 129.54 264.941 129.692 264.992 129.844C265.6 131.769 266.233 133.733 266.892 135.734C267.55 137.735 268.184 139.673 268.792 141.548C269.425 143.397 269.995 145.069 270.502 146.564C271.034 148.033 271.452 149.224 271.756 150.136C272.11 151.149 272.49 151.909 272.896 152.416C273.301 152.923 273.719 153.277 274.15 153.48C274.606 153.683 275.087 153.835 275.594 153.936C276.024 154.012 276.341 154.139 276.544 154.316C276.746 154.468 276.848 154.633 276.848 154.81C276.848 154.962 276.746 155.063 276.544 155.114C276.341 155.165 276.075 155.19 275.746 155.19C275.391 155.19 274.91 155.165 274.302 155.114C273.694 155.089 273.048 155.051 272.364 155C271.68 154.975 271.046 154.962 270.464 154.962C269.982 154.962 269.488 154.962 268.982 154.962C268.475 154.962 268.006 154.975 267.576 155C267.145 155 266.778 155 266.474 155C266.144 155 265.878 154.962 265.676 154.886C265.473 154.81 265.372 154.696 265.372 154.544C265.372 154.367 265.498 154.215 265.752 154.088C266.005 153.961 266.296 153.873 266.626 153.822C267.462 153.695 268.057 153.48 268.412 153.176C268.766 152.872 268.944 152.517 268.944 152.112C268.944 151.732 268.855 151.187 268.678 150.478C268.526 149.743 268.336 148.971 268.108 148.16C267.88 147.324 267.664 146.589 267.462 145.956C267.411 145.753 267.31 145.639 267.158 145.614C267.031 145.563 266.79 145.538 266.436 145.538H259.254C259.152 145.538 259.038 145.589 258.912 145.69C258.81 145.766 258.709 145.943 258.608 146.222C258.532 146.475 258.405 146.881 258.228 147.438C258.05 147.97 257.873 148.54 257.696 149.148C257.518 149.756 257.366 150.301 257.24 150.782C257.113 151.263 257.05 151.567 257.05 151.694C257.05 152.251 257.265 152.72 257.696 153.1C258.126 153.455 258.646 153.708 259.254 153.86C260.09 154.088 260.508 154.341 260.508 154.62C260.508 154.772 260.406 154.886 260.204 154.962C260.001 155.013 259.735 155.038 259.406 155.038C259.076 155.038 258.595 155.025 257.962 155C257.328 154.975 256.657 154.962 255.948 154.962C255.112 154.962 254.301 155 253.516 155.076C252.73 155.152 252.021 155.19 251.388 155.19ZM260.28 144.284H266.17C266.524 144.284 266.702 144.221 266.702 144.094C266.702 144.043 266.689 143.993 266.664 143.942C266.664 143.866 266.651 143.79 266.626 143.714L263.662 134.442C263.51 133.986 263.396 133.758 263.32 133.758C263.269 133.758 263.168 133.973 263.016 134.404L259.558 143.714C259.507 143.866 259.482 143.967 259.482 144.018C259.482 144.145 259.545 144.221 259.672 144.246C259.824 144.271 260.026 144.284 260.28 144.284ZM291.264 155.608C290.2 155.608 289.212 155.443 288.3 155.114C287.414 154.81 286.616 154.367 285.906 153.784C285.805 153.683 285.704 153.569 285.602 153.442C285.526 153.315 285.463 153.176 285.412 153.024C285.286 152.517 285.197 151.859 285.146 151.048C285.121 150.237 285.083 149.566 285.032 149.034C285.032 148.857 285.108 148.73 285.26 148.654C285.412 148.553 285.59 148.502 285.792 148.502C285.919 148.502 286.046 148.54 286.172 148.616C286.299 148.667 286.375 148.768 286.4 148.92C286.907 150.871 287.654 152.264 288.642 153.1C289.656 153.936 290.707 154.354 291.796 154.354C292.683 154.354 293.468 154.164 294.152 153.784C294.836 153.404 295.368 152.872 295.748 152.188C296.154 151.479 296.356 150.655 296.356 149.718C296.356 148.679 296.179 147.843 295.824 147.21C295.495 146.551 295.014 145.981 294.38 145.5C293.747 145.019 292.974 144.499 292.062 143.942C291.074 143.309 290.099 142.675 289.136 142.042C288.174 141.383 287.376 140.636 286.742 139.8C286.109 138.939 285.792 137.9 285.792 136.684C285.792 135.392 286.084 134.227 286.666 133.188C287.249 132.149 288.123 131.326 289.288 130.718C290.479 130.085 291.961 129.768 293.734 129.768C294.646 129.768 295.432 129.869 296.09 130.072C296.774 130.249 297.319 130.427 297.724 130.604C297.927 130.68 298.092 130.807 298.218 130.984C298.37 131.161 298.472 131.351 298.522 131.554C298.674 132.086 298.839 132.694 299.016 133.378C299.194 134.062 299.282 134.708 299.282 135.316C299.282 135.595 299.092 135.734 298.712 135.734C298.484 135.734 298.256 135.683 298.028 135.582C297.826 135.481 297.699 135.354 297.648 135.202C297.116 133.859 296.496 132.833 295.786 132.124C295.077 131.415 294.178 131.06 293.088 131.06C292.328 131.06 291.619 131.199 290.96 131.478C290.302 131.757 289.757 132.213 289.326 132.846C288.921 133.479 288.718 134.328 288.718 135.392C288.718 136.152 288.959 136.849 289.44 137.482C289.947 138.09 290.606 138.673 291.416 139.23C292.227 139.787 293.101 140.357 294.038 140.94C294.925 141.472 295.786 142.055 296.622 142.688C297.484 143.321 298.18 144.081 298.712 144.968C299.27 145.829 299.548 146.893 299.548 148.16C299.548 149.655 299.206 150.972 298.522 152.112C297.838 153.227 296.876 154.088 295.634 154.696C294.393 155.304 292.936 155.608 291.264 155.608ZM42.1326 262.864C40.2552 262.864 38.2499 262.565 36.1166 261.968C33.9832 261.371 32.1486 260.603 30.6126 259.664C29.1619 258.811 28.4366 257.957 28.4366 257.104C28.4366 256.336 28.6926 255.44 29.2046 254.416C29.8019 253.392 30.5272 252.496 31.3806 251.728C32.2339 250.96 33.0019 250.576 33.6846 250.576C34.5379 250.576 35.3059 250.789 35.9886 251.216C36.6712 251.643 37.3966 252.197 38.1646 252.88C39.2739 253.989 40.5539 255.099 42.0046 256.208C43.5406 257.232 45.4606 257.744 47.7646 257.744C50.7512 257.744 53.5246 256.976 56.0846 255.44C58.7299 253.819 60.8632 251.6 62.4846 248.784C64.1912 245.968 65.0446 242.768 65.0446 239.184C65.0446 235.856 64.4899 232.699 63.3806 229.712C62.3566 226.725 60.8206 224.336 58.7726 222.544C56.7246 220.667 54.1646 219.728 51.0926 219.728C49.7272 219.728 48.2766 219.941 46.7406 220.368C45.2899 220.795 43.9672 221.349 42.7726 222.032C42.2606 222.288 41.6632 222.245 40.9806 221.904C40.2979 221.563 40.0419 221.136 40.2126 220.624C40.5539 219.259 41.1086 218.149 41.8766 217.296C42.7299 216.443 43.6259 215.803 44.5646 215.376C45.9299 214.693 47.5086 213.84 49.3006 212.816C51.0926 211.707 52.8419 210.427 54.5486 208.976C56.2552 207.44 57.6632 205.733 58.7726 203.856C59.8819 201.979 60.4366 199.931 60.4366 197.712C60.4366 194.469 59.3699 191.653 57.2366 189.264C55.1032 186.789 52.3726 185.552 49.0446 185.552C45.9726 185.552 43.4979 186.107 41.6206 187.216C39.7432 188.325 38.2072 189.605 37.0126 191.056C35.8179 192.507 34.8792 193.787 34.1966 194.896C33.5139 196.005 32.9592 196.56 32.5326 196.56C32.1059 196.56 31.5939 196.304 30.9966 195.792C30.4846 195.195 30.2286 194.555 30.2286 193.872C30.2286 192.933 30.6979 191.568 31.6366 189.776C32.5752 187.899 34.0259 186.021 35.9886 184.144C38.0366 182.267 40.6392 180.688 43.7966 179.408C46.9539 178.043 50.7939 177.36 55.3166 177.36C58.3032 177.36 61.1192 178 63.7646 179.28C66.4099 180.56 68.5432 182.309 70.1646 184.528C71.8712 186.747 72.7246 189.349 72.7246 192.336C72.7246 194.299 72.2126 196.475 71.1886 198.864C70.2499 201.168 68.6712 203.429 66.4526 205.648C64.3192 207.781 61.4606 209.659 57.8766 211.28C57.6206 211.365 57.4926 211.536 57.4926 211.792C57.4926 211.963 57.6632 212.048 58.0046 212.048C61.9299 212.048 65.4286 212.944 68.5006 214.736C71.5726 216.443 74.0046 218.789 75.7966 221.776C77.6739 224.763 78.6126 228.176 78.6126 232.016C78.6126 236.795 77.5886 241.104 75.5406 244.944C73.4926 248.699 70.7192 251.941 67.2206 254.672C63.7219 257.317 59.7966 259.323 55.4446 260.688C51.1779 262.139 46.7406 262.864 42.1326 262.864ZM116.638 259.792C112.371 259.792 108.403 258.939 104.734 257.232C101.15 255.525 98.2482 253.179 96.0296 250.192C93.8109 247.205 92.7016 243.749 92.7016 239.824C92.7016 236.24 93.6829 233.211 95.6456 230.736C97.6082 228.261 99.9549 226.171 102.686 224.464C105.416 222.757 107.891 221.264 110.11 219.984C110.792 219.643 111.006 219.387 110.75 219.216C110.579 218.96 110.238 218.619 109.726 218.192C107.166 216.059 104.734 213.968 102.43 211.92C100.211 209.787 98.3762 207.44 96.9256 204.88C95.5602 202.235 94.8776 199.205 94.8776 195.792C94.8776 192.208 96.0722 189.051 98.4616 186.32C100.936 183.589 104.051 181.413 107.806 179.792C111.646 178.171 115.571 177.36 119.582 177.36C123.166 177.36 126.579 178.085 129.822 179.536C133.15 180.987 135.838 183.035 137.886 185.68C139.934 188.24 140.958 191.312 140.958 194.896C140.958 198.053 140.19 200.613 138.654 202.576C137.118 204.539 135.539 206.117 133.918 207.312C132.808 208.165 131.784 208.933 130.846 209.616C129.907 210.213 128.798 210.981 127.518 211.92C126.323 212.688 125.726 213.243 125.726 213.584C125.726 213.925 126.11 214.309 126.878 214.736C130.035 216.955 132.851 219.131 135.326 221.264C137.886 223.312 139.848 225.573 141.214 228.048C142.664 230.437 143.39 233.296 143.39 236.624C143.39 241.147 142.11 245.157 139.55 248.656C136.99 252.155 133.662 254.885 129.566 256.848C125.555 258.811 121.246 259.792 116.638 259.792ZM118.558 255.44C122.056 255.44 124.958 254.16 127.262 251.6C129.651 248.955 130.846 245.883 130.846 242.384C130.846 239.824 130.078 237.392 128.542 235.088C127.091 232.784 125.256 230.608 123.038 228.56C120.819 226.512 118.6 224.677 116.382 223.056C115.87 222.629 115.443 222.331 115.102 222.16C114.76 221.904 114.376 221.776 113.95 221.776C113.694 221.776 113.182 222.075 112.414 222.672C109.939 224.72 108.147 226.853 107.038 229.072C105.928 231.291 105.374 234.32 105.374 238.16C105.374 241.061 105.886 243.835 106.91 246.48C107.934 249.04 109.427 251.173 111.39 252.88C113.438 254.587 115.827 255.44 118.558 255.44ZM122.91 211.152C125.384 209.104 127.006 206.629 127.774 203.728C128.542 200.827 128.926 197.627 128.926 194.128C128.926 190.629 128.072 187.643 126.366 185.168C124.744 182.608 122.142 181.328 118.558 181.328C116.68 181.328 114.846 181.84 113.054 182.864C111.347 183.888 109.896 185.253 108.702 186.96C107.592 188.667 107.038 190.629 107.038 192.848C107.038 195.749 107.635 198.139 108.83 200.016C110.024 201.893 111.646 203.643 113.694 205.264C115.827 206.8 118.216 208.677 120.862 210.896C121.203 211.152 121.544 211.323 121.886 211.408C122.312 211.493 122.654 211.408 122.91 211.152ZM166.496 276.176C165.557 276.176 164.682 275.899 163.872 275.344C163.061 274.832 162.656 274.085 162.656 273.104C162.656 272.293 162.848 271.568 163.232 270.928C163.616 270.288 164.192 269.968 164.96 269.968C165.514 269.968 166.048 270.032 166.56 270.16C167.114 270.331 167.605 270.416 168.032 270.416C168.458 270.373 168.778 270.267 168.992 270.096C169.205 269.968 169.418 269.712 169.632 269.328C170.058 268.645 170.506 267.835 170.976 266.896C171.488 266 172.021 264.955 172.576 263.76C173.13 262.565 173.706 261.221 174.304 259.728C174.56 259.088 174.688 258.405 174.688 257.68C174.688 257.253 174.645 256.848 174.56 256.464C174.474 256.08 174.346 255.696 174.176 255.312L166.624 236.88C166.282 236.069 165.877 235.365 165.408 234.768C164.938 234.171 164.341 233.765 163.616 233.552C163.274 233.381 162.954 233.211 162.656 233.04C162.4 232.869 162.272 232.613 162.272 232.272C162.272 232.016 162.442 231.867 162.784 231.824C163.125 231.739 163.402 231.696 163.616 231.696C164.554 231.696 165.28 231.717 165.792 231.76C166.304 231.803 166.773 231.845 167.2 231.888C167.626 231.931 168.181 231.952 168.864 231.952C169.674 231.952 170.314 231.931 170.784 231.888C171.253 231.845 171.744 231.803 172.256 231.76C172.81 231.717 173.536 231.696 174.432 231.696C174.73 231.696 175.029 231.76 175.328 231.888C175.626 231.973 175.776 232.144 175.776 232.4C175.776 232.741 175.584 233.04 175.2 233.296C174.816 233.509 174.453 233.68 174.112 233.808C173.642 233.936 173.28 234.171 173.024 234.512C172.81 234.811 172.704 235.301 172.704 235.984C172.704 236.283 172.768 236.624 172.896 237.008C173.024 237.392 173.173 237.776 173.344 238.16L178.08 249.872C178.165 250.085 178.272 250.192 178.4 250.192C178.485 250.192 178.57 250.085 178.656 249.872L182.688 238.8C182.816 238.501 182.922 238.117 183.008 237.648C183.093 237.136 183.136 236.709 183.136 236.368C183.136 235.6 182.986 235.045 182.688 234.704C182.389 234.32 182.048 234.043 181.664 233.872C181.322 233.701 180.938 233.509 180.512 233.296C180.128 233.04 179.936 232.741 179.936 232.4C179.936 232.144 180.085 231.973 180.384 231.888C180.725 231.76 181.024 231.696 181.28 231.696C182.048 231.696 182.752 231.739 183.392 231.824C184.032 231.909 184.842 231.952 185.824 231.952C186.506 231.952 187.04 231.931 187.424 231.888C187.808 231.845 188.17 231.803 188.512 231.76C188.853 231.717 189.301 231.696 189.856 231.696C190.069 231.696 190.346 231.739 190.688 231.824C191.029 231.867 191.2 232.016 191.2 232.272C191.2 232.613 191.05 232.869 190.752 233.04C190.496 233.211 190.197 233.381 189.856 233.552C189.173 233.765 188.469 234.256 187.744 235.024C187.061 235.792 186.506 236.688 186.08 237.712L177.056 259.216C176.928 259.6 176.65 260.283 176.224 261.264C175.84 262.245 175.37 263.397 174.816 264.72C174.261 266.043 173.664 267.429 173.024 268.88C172.426 270.373 171.829 271.803 171.232 273.168C170.805 274.149 170.165 274.896 169.312 275.408C168.501 275.92 167.562 276.176 166.496 276.176ZM217.153 261.968C216.129 261.968 215.361 261.627 214.849 260.944C214.337 260.261 214.081 259.408 214.081 258.384C214.081 258.043 214.423 257.275 215.105 256.08C215.788 254.885 216.428 253.776 217.025 252.752L251.329 191.312C251.585 190.885 251.628 190.587 251.457 190.416C251.372 190.16 250.903 189.989 250.049 189.904H218.689C216.556 189.904 214.764 190.288 213.313 191.056C211.948 191.739 210.54 193.189 209.089 195.408C208.919 195.749 208.62 196.261 208.193 196.944C207.767 197.627 207.255 198.267 206.657 198.864C206.06 199.461 205.505 199.76 204.993 199.76C204.567 199.76 204.225 199.547 203.969 199.12C203.713 198.693 203.585 198.267 203.585 197.84C203.585 197.328 203.713 196.645 203.969 195.792C204.225 194.939 204.396 194.299 204.481 193.872C204.908 191.653 205.377 189.179 205.889 186.448C206.401 183.717 206.743 181.413 206.913 179.536C206.913 178.768 207.127 178.299 207.553 178.128C208.065 177.872 208.449 177.787 208.705 177.872C209.132 177.872 210.455 178.085 212.673 178.512C214.892 178.853 217.324 179.024 219.969 179.024C221.591 179.024 223.255 179.067 224.961 179.152C226.668 179.152 228.417 179.195 230.209 179.28C232.087 179.28 233.964 179.28 235.841 179.28C239.681 179.28 243.393 179.28 246.977 179.28C250.647 179.195 253.847 179.109 256.577 179.024C259.308 178.853 261.143 178.725 262.081 178.64C262.337 178.64 262.551 178.896 262.721 179.408C262.892 179.835 262.977 180.261 262.977 180.688C262.977 181.285 262.679 182.096 262.081 183.12C261.569 184.144 260.929 185.211 260.161 186.32C259.393 187.429 258.753 188.496 258.241 189.52L219.713 258.256C219.372 259.024 218.903 259.835 218.305 260.688C217.793 261.541 217.409 261.968 217.153 261.968ZM285.77 259.92C280.821 259.92 276.341 258.896 272.33 256.848C268.32 254.8 265.12 251.813 262.73 247.888C260.341 243.877 259.146 239.013 259.146 233.296C259.146 228.517 259.701 224.208 260.81 220.368C261.92 216.443 263.285 212.987 264.906 210C266.613 206.928 268.32 204.325 270.026 202.192C271.733 200.059 273.184 198.352 274.378 197.072C276.426 194.853 279.072 192.421 282.314 189.776C285.642 187.131 289.482 184.613 293.834 182.224C298.186 179.749 302.88 177.787 307.914 176.336C308.853 175.995 309.706 175.909 310.474 176.08C311.242 176.251 311.541 176.549 311.37 176.976C311.2 177.744 310.73 178.384 309.962 178.896C309.194 179.323 308.426 179.707 307.658 180.048C302.282 182.352 297.674 185.04 293.834 188.112C290.08 191.184 286.666 194.981 283.594 199.504C282.314 201.552 280.778 204.325 278.986 207.824C277.194 211.323 275.658 215.248 274.378 219.6C273.098 223.952 272.458 228.389 272.458 232.912C272.544 237.605 273.397 241.573 275.018 244.816C276.64 248.059 278.688 250.533 281.162 252.24C283.637 253.947 286.112 254.8 288.586 254.8C291.744 254.885 294.474 253.648 296.778 251.088C299.168 248.528 300.362 244.645 300.362 239.44C300.362 236.795 299.893 234.405 298.954 232.272C298.016 230.053 296.736 228.261 295.114 226.896C293.493 225.445 291.658 224.72 289.61 224.72C287.818 224.72 286.24 224.848 284.874 225.104C283.594 225.275 282.357 225.659 281.162 226.256C280.138 226.768 279.498 226.768 279.242 226.256C279.072 225.659 279.285 224.976 279.882 224.208C280.48 223.611 280.992 223.099 281.418 222.672C281.93 222.245 282.528 221.819 283.21 221.392C284.234 220.539 286.026 219.557 288.586 218.448C291.146 217.253 293.578 216.656 295.882 216.656C298.954 216.656 301.77 217.381 304.33 218.832C306.976 220.283 309.109 222.245 310.73 224.72C312.352 227.195 313.162 230.053 313.162 233.296C313.162 237.051 312.394 240.549 310.858 243.792C309.408 247.035 307.402 249.893 304.842 252.368C302.282 254.757 299.338 256.635 296.01 258C292.768 259.28 289.354 259.92 285.77 259.92Z" fill="white"/>
<line x1="309" y1="129.5" x2="338" y2="129.5" stroke="white"/>
<line y1="129.5" x2="29" y2="129.5" stroke="white"/>
</svg>
